# xmcd
#
# Track frame offsets: 
#        150
#        10482
#        22138
#        40855
#        49357
#        69375
#        84373
#        101087
#        121024
#        130195
#        147091
#        167069
#
# Disc length: 2534 seconds
#
# Revision: 0
# Processed by: cddbd v1.5.2PL0 Copyright (c) Steve Scherf et al.
# Submitted via: ExactAudioCopy v0.95b3
#
DISCID=9f09e40c
DTITLE=United Steel Workers of Montreal - Kerosene and Coal
DYEAR=2007
DGENRE=Folk
TTITLE0=Small Town Banks
TTITLE1=Out in the Cold
TTITLE2=Standing There
TTITLE3=Green Means Go
TTITLE4=Ask Me to Stay
TTITLE5=Tracie Dean
TTITLE6=Meaner Than You
TTITLE7=Emile Bertrand
TTITLE8=Can't Stop Now
TTITLE9=Sad Lover's Lament
TTITLE10=Big Ol' Dirty Tattoo
TTITLE11=Union Man
EXTD=
EXTT0=
EXTT1=
EXTT2=
EXTT3=
EXTT4=
EXTT5=
EXTT6=
EXTT7=
EXTT8=
EXTT9=
EXTT10=
EXTT11=
PLAYORDER=
